<svg width="25" height="12" viewBox="0 0 25 12" fill="none" xmlns="http://www.w3.org/2000/svg">
<path opacity="0.35" d="M0.833496 2.99967C0.833496 1.80306 1.80355 0.833008 3.00016 0.833008H19.6668C20.8634 0.833008 21.8335 1.80306 21.8335 2.99967V8.99968C21.8335 10.1963 20.8634 11.1663 19.6668 11.1663H3.00016C1.80354 11.1663 0.833496 10.1963 0.833496 8.99967V2.99967Z" stroke="white"/>
<path opacity="0.4" d="M23.3335 3.99951V7.99951C24.1382 7.66074 24.6615 6.87264 24.6615 5.99951C24.6615 5.12638 24.1382 4.33829 23.3335 3.99951Z" fill="white"/>
<path d="M2.3335 3.66634C2.3335 2.92996 2.93045 2.33301 3.66683 2.33301H19.0002C19.7365 2.33301 20.3335 2.92996 20.3335 3.66634V8.33301C20.3335 9.06939 19.7365 9.66634 19.0002 9.66634H3.66683C2.93045 9.66634 2.3335 9.06939 2.3335 8.33301V3.66634Z" fill="white"/>
</svg>
