<svg width="24" height="24" viewBox="0 0 24 24" fill="none" xmlns="http://www.w3.org/2000/svg">
<path d="M10.3635 12.8182C10.7149 13.2879 11.1632 13.6766 11.678 13.9579C12.1928 14.2391 12.762 14.4064 13.3471 14.4483C13.9323 14.4902 14.5196 14.4058 15.0692 14.2007C15.6188 13.9957 16.1179 13.6749 16.5326 13.26L18.9872 10.8055C19.7324 10.0339 20.1447 9.00054 20.1354 7.92792C20.1261 6.8553 19.6958 5.82925 18.9373 5.07076C18.1788 4.31227 17.1528 3.88203 16.0802 3.87271C15.0075 3.86339 13.9742 4.27573 13.2026 5.02093L11.7953 6.42002" stroke="white" stroke-width="2" stroke-linecap="round" stroke-linejoin="round"/>
<path d="M13.6363 11.1818C13.2849 10.7121 12.8366 10.3234 12.3218 10.0421C11.807 9.76087 11.2378 9.59362 10.6526 9.55171C10.0675 9.50981 9.48023 9.59423 8.93061 9.79925C8.38099 10.0043 7.88189 10.3251 7.46717 10.74L5.01262 13.1945C4.26743 13.9661 3.85509 14.9995 3.86441 16.0721C3.87373 17.1447 4.30397 18.1708 5.06246 18.9292C5.82095 19.6877 6.847 20.118 7.91962 20.1273C8.99224 20.1366 10.0256 19.7243 10.7972 18.9791L12.1963 17.58" stroke="white" stroke-width="2" stroke-linecap="round" stroke-linejoin="round"/>
</svg>
