<svg width="17" height="12" viewBox="0 0 17 12" fill="none" xmlns="http://www.w3.org/2000/svg">
<path fill-rule="evenodd" clip-rule="evenodd" d="M16 0.666504H15C14.4477 0.666504 14 1.11422 14 1.6665V10.3332C14 10.8855 14.4477 11.3332 15 11.3332H16C16.5523 11.3332 17 10.8855 17 10.3332V1.6665C17 1.11422 16.5523 0.666504 16 0.666504ZM10.3333 3H11.3333C11.8855 3 12.3333 3.44772 12.3333 4V10.3333C12.3333 10.8856 11.8855 11.3333 11.3333 11.3333H10.3333C9.78097 11.3333 9.33325 10.8856 9.33325 10.3333V4C9.33325 3.44772 9.78097 3 10.3333 3ZM6.66675 5.33301H5.66675C5.11446 5.33301 4.66675 5.78072 4.66675 6.33301V10.333C4.66675 10.8853 5.11446 11.333 5.66675 11.333H6.66675C7.21903 11.333 7.66675 10.8853 7.66675 10.333V6.33301C7.66675 5.78072 7.21903 5.33301 6.66675 5.33301ZM2 7.33301H1C0.447715 7.33301 0 7.78072 0 8.33301V10.333C0 10.8853 0.447715 11.333 1 11.333H2C2.55228 11.333 3 10.8853 3 10.333V8.33301C3 7.78072 2.55228 7.33301 2 7.33301Z" fill="white"/>
</svg>
