<svg width="23" height="24" viewBox="0 0 23 24" fill="none" xmlns="http://www.w3.org/2000/svg">
<path d="M0.381763 17.3536C0.127254 15.541 0 13.7387 0 11.9468C0 10.155 0.12722 8.35302 0.381659 6.54071C0.438304 6.13725 0.651364 5.77149 0.975673 5.52098C2.42422 4.40207 3.93629 3.39212 5.51189 2.49115C7.0879 1.58993 8.72748 0.797738 10.4306 0.114579C10.8112 -0.0380715 11.2367 -0.0381972 11.6174 0.114228C13.3113 0.792525 14.9507 1.58483 16.5357 2.49115C18.1204 3.39734 19.6327 4.40724 21.0725 5.52087C21.3964 5.77136 21.6092 6.13685 21.6658 6.53998C21.9203 8.35253 22.0475 10.1548 22.0475 11.9468C22.0475 13.7385 21.9203 15.5405 21.6659 17.3528C21.6092 17.7563 21.3962 18.1221 21.0719 18.3726C19.6233 19.4915 18.1112 20.5014 16.5357 21.4024C14.9596 22.3036 13.3201 23.0958 11.6169 23.779C11.2364 23.9316 10.8108 23.9317 10.4301 23.7793C8.73624 23.101 7.09682 22.3087 5.51189 21.4024C3.92717 20.4962 2.41488 19.4863 0.975006 18.3727C0.651125 18.1222 0.438367 17.7567 0.381763 17.3536Z" fill="#66D3D0"/>
<mask id="mask0_248_4177" style="mask-type:alpha" maskUnits="userSpaceOnUse" x="0" y="0" width="23" height="24">
<path d="M0.381763 17.3536C0.127254 15.541 0 13.7387 0 11.9468C0 10.155 0.12722 8.35302 0.381659 6.54071C0.438304 6.13725 0.651364 5.77149 0.975673 5.52098C2.42422 4.40207 3.93629 3.39212 5.51189 2.49115C7.0879 1.58993 8.72748 0.797738 10.4306 0.114579C10.8112 -0.0380715 11.2367 -0.0381972 11.6174 0.114228C13.3113 0.792525 14.9507 1.58483 16.5357 2.49115C18.1204 3.39734 19.6327 4.40724 21.0725 5.52087C21.3964 5.77136 21.6092 6.13685 21.6658 6.53998C21.9203 8.35253 22.0475 10.1548 22.0475 11.9468C22.0475 13.7385 21.9203 15.5405 21.6659 17.3528C21.6092 17.7563 21.3962 18.1221 21.0719 18.3726C19.6233 19.4915 18.1112 20.5014 16.5357 21.4024C14.9596 22.3036 13.3201 23.0958 11.6169 23.779C11.2364 23.9316 10.8108 23.9317 10.4301 23.7793C8.73624 23.101 7.09682 22.3087 5.51189 21.4024C3.92717 20.4962 2.41488 19.4863 0.975006 18.3727C0.651125 18.1222 0.438367 17.7567 0.381763 17.3536Z" fill="white"/>
</mask>
<g mask="url(#mask0_248_4177)">
</g>
<path d="M10.2886 12.2222L11.0905 19.3553L13.857 20.4926C14.8319 20.8935 15.9017 20.1766 15.9017 19.1224V12.2222H10.2886Z" fill="#F1543F"/>
<path d="M6.27905 12.2222V19.1213C6.27905 20.1757 7.34944 20.8926 8.3245 20.4912L11.0903 19.3526V12.2222H6.27905Z" fill="#FF7058"/>
<path d="M9.8877 9.25122L18.107 10.0435C18.107 13.8658 14.9592 16.9759 11.0905 16.9759L9.8877 9.25122Z" fill="#FFD15C"/>
<path d="M18.107 10.0435H9.8877L11.0905 3.11108C14.9592 3.11108 18.107 6.22114 18.107 10.0435Z" fill="#FFD15C"/>
<path d="M11.0904 10.0434V16.9758C7.22176 16.9758 4.07397 13.8657 4.07397 10.0434L7.58221 8.85498L11.0904 10.0434Z" fill="#FFD15C"/>
<path d="M11.0904 3.11108V10.0435H4.07397C4.07397 6.22114 7.22176 3.11108 11.0904 3.11108Z" fill="#FFD15C"/>
<path d="M11.0904 5.0918C8.32669 5.0918 6.07861 7.31293 6.07861 10.0435L11.0904 14.2029C14.779 14.2029 16.1021 10.0435 16.1021 10.0435C16.1021 7.31293 13.8541 5.0918 11.0904 5.0918Z" fill="white"/>
<path d="M14.8993 10.0436C14.8993 12.1185 13.1905 13.8068 11.0904 13.8068V6.28027C8.99024 6.28027 7.28144 7.9686 7.28144 10.0436H6.07861C6.07861 12.7741 8.32669 14.9952 11.0904 14.9952C13.8541 14.9952 16.1021 12.7741 16.1021 10.0436H14.8993Z" fill="white"/>
<path fill-rule="evenodd" clip-rule="evenodd" d="M11.0905 15.1111C13.9656 15.1111 16.2963 12.8228 16.2963 10C16.2963 7.17724 13.9656 4.88892 11.0905 4.88892C8.21546 4.88892 5.88477 7.17724 5.88477 10C5.88477 12.8228 8.21546 15.1111 11.0905 15.1111Z" fill="#F8B64C"/>
</svg>
