<svg width="24" height="24" viewBox="0 0 24 24" fill="none" xmlns="http://www.w3.org/2000/svg">
<path d="M12 10.3647C16.4187 10.3647 20 8.93907 20 7.18236C20 5.42565 16.4187 4 12 4C7.58125 4 4 5.42565 4 7.18236C4 8.93907 7.58125 10.3647 12 10.3647ZM12 17.4529C8.94688 17.4529 6.24688 16.752 4.54375 15.6694C4.19687 16.0273 4 16.412 4 16.8176C4 18.5744 7.58125 20 12 20C16.4187 20 20 18.5744 20 16.8176C20 16.412 19.8031 16.0273 19.4563 15.6723C17.7531 16.752 15.0531 17.4529 12 17.4529ZM12 12.6353C8.94688 12.6353 6.24688 11.9344 4.54375 10.8517C4.19687 11.2096 4 11.5944 4 12C4 13.7567 7.58125 15.1824 12 15.1824C16.4187 15.1824 20 13.7567 20 12C20 11.5944 19.8031 11.2096 19.4563 10.8547C17.7531 11.9344 15.0531 12.6353 12 12.6353Z" fill="white"/>
</svg>
