<svg width="16" height="16" viewBox="0 0 16 16" fill="none" xmlns="http://www.w3.org/2000/svg">
<path d="M7.73199 6.76873L6.65995 7.75381C6.58889 7.81913 6.54896 7.90772 6.54896 8.00008C6.54896 8.09245 6.58889 8.18103 6.65995 8.24635L7.73199 9.23143C7.80308 9.29673 7.89948 9.33341 8 9.33341C8.10052 9.33341 8.19692 9.29673 8.26801 9.23143L9.34005 8.24635C9.41112 8.18103 9.45104 8.09245 9.45104 8.00008C9.45104 7.90772 9.41112 7.81913 9.34005 7.75381L8.26801 6.76873C8.19692 6.70343 8.10052 6.66675 8 6.66675C7.89948 6.66675 7.80308 6.70343 7.73199 6.76873ZM8 8.49262L7.46398 8.00008L8 7.50754L8.53602 8.00008L8 8.49262ZM12.281 6.76873L11.2089 7.75381C11.1378 7.81913 11.0979 7.90772 11.0979 8.00008C11.0979 8.09245 11.1378 8.18103 11.2089 8.24635L12.281 9.23143C12.352 9.29673 12.4484 9.33341 12.549 9.33341C12.6495 9.33341 12.7459 9.29673 12.817 9.23143L13.889 8.24635C13.9601 8.18103 14 8.09245 14 8.00008C14 7.90772 13.9601 7.81913 13.889 7.75381L12.817 6.76873C12.7459 6.70343 12.6495 6.66675 12.549 6.66675C12.4484 6.66675 12.352 6.70343 12.281 6.76873ZM12.549 8.49262L12.0129 8.00008L12.549 7.50754L13.085 8.00008L12.549 8.49262ZM4.79109 7.75381L3.71905 6.76873C3.64796 6.70343 3.55156 6.66675 3.45104 6.66675C3.35052 6.66675 3.25412 6.70343 3.18303 6.76873L2.11099 7.75381C2.03992 7.81913 2 7.90772 2 8.00008C2 8.09245 2.03992 8.18103 2.11099 8.24635L3.18303 9.23143C3.25412 9.29673 3.35052 9.33341 3.45104 9.33341C3.55156 9.33341 3.64796 9.29673 3.71905 9.23143L4.79109 8.24635C4.86215 8.18103 4.90208 8.09245 4.90208 8.00008C4.90208 7.90772 4.86215 7.81913 4.79109 7.75381ZM3.45104 8.49262L2.91502 8.00008L3.45104 7.50754L3.98706 8.00008L3.45104 8.49262Z" fill="white"/>
<path d="M5.72467 7.06597C5.78882 7.13609 5.87497 7.17534 5.96469 7.17534C6.05441 7.17534 6.14057 7.13609 6.20472 7.06597C6.64881 6.55895 8.00008 5.05533 8.00008 5.05533C8.00008 5.05533 9.35135 6.55781 9.79544 7.06521C9.85959 7.13533 9.94575 7.17458 10.0355 7.17458C10.1252 7.17458 10.2113 7.13533 10.2755 7.06521C10.513 6.79407 10.993 6.25709 11.2356 5.99201C11.2983 5.92037 11.3334 5.82412 11.3334 5.7239C11.3334 5.62367 11.2983 5.52743 11.2356 5.45579C10.4794 4.62794 8.23994 2.11103 8.23994 2.11103C8.17632 2.03994 8.09004 2 8.00008 2C7.91012 2 7.82384 2.03994 7.76022 2.11103C7.76022 2.11103 5.52111 4.62794 4.76456 5.45579C4.70186 5.52743 4.66675 5.62367 4.66675 5.7239C4.66675 5.82412 4.70186 5.92037 4.76456 5.99201C5.00713 6.25785 5.48718 6.79483 5.72467 7.06597ZM8.00008 2.91575L10.5157 5.72466L10.0356 6.26126C10.0356 6.26126 8.68403 4.75877 8.23994 4.25137C8.17577 4.18114 8.08954 4.14182 7.99974 4.14182C7.90994 4.14182 7.82371 4.18114 7.75955 4.25137C7.31546 4.75915 5.96384 6.26126 5.96384 6.26126L5.48447 5.72466L8.00008 2.91575ZM10.2755 8.93403C10.2114 8.86383 10.1252 8.82451 10.0355 8.82451C9.94572 8.82451 9.85955 8.86383 9.79544 8.93403C9.35135 9.44105 8.00008 10.9447 8.00008 10.9447C8.00008 10.9447 6.64881 9.44219 6.20472 8.93479C6.14061 8.86458 6.05444 8.82526 5.96469 8.82526C5.87495 8.82526 5.78878 8.86458 5.72467 8.93479C5.48718 9.20631 5.00679 9.74215 4.76456 10.008C4.70194 10.0797 4.66688 10.1759 4.66688 10.2761C4.66688 10.3763 4.70194 10.4725 4.76456 10.5442C5.52077 11.3721 7.01148 13.0528 7.76022 13.889C7.82384 13.9601 7.91012 14 8.00008 14C8.09004 14 8.17632 13.9601 8.23994 13.889C8.98868 13.0547 10.4791 11.3721 11.2356 10.5442C11.2982 10.4725 11.3333 10.3763 11.3333 10.2761C11.3333 10.1759 11.2982 10.0797 11.2356 10.008C10.9934 9.7414 10.5126 9.20555 10.2755 8.93403ZM8.00008 13.0843L5.48447 10.2753L5.96452 9.73874L7.76022 11.7486C7.82504 11.8175 7.91102 11.8558 8.00042 11.8558C8.08982 11.8558 8.1758 11.8175 8.24062 11.7486L10.0356 9.73874L10.5157 10.2753L8.00008 13.0843Z" fill="white"/>
</svg>
