<svg width="16" height="12" viewBox="0 0 16 12" fill="none" xmlns="http://www.w3.org/2000/svg">
<path fill-rule="evenodd" clip-rule="evenodd" d="M7.66371 2.60789C9.8796 2.60799 12.0108 3.45943 13.6167 4.98623C13.7376 5.1041 13.9309 5.10261 14.05 4.98289L15.206 3.81623C15.2663 3.7555 15.3 3.67325 15.2995 3.58767C15.299 3.50209 15.2644 3.42024 15.2034 3.36023C10.9883 -0.67932 4.33847 -0.67932 0.123372 3.36023C0.0623135 3.4202 0.0276696 3.50202 0.0271066 3.5876C0.0265436 3.67318 0.0601078 3.75546 0.120372 3.81623L1.27671 4.98289C1.39573 5.1028 1.58918 5.10428 1.71004 4.98623C3.31619 3.45933 5.4476 2.60789 7.66371 2.60789ZM7.66375 6.40347C8.88124 6.40339 10.0553 6.85592 10.9578 7.67313C11.0798 7.78911 11.2721 7.7866 11.3911 7.66747L12.5458 6.5008C12.6066 6.4396 12.6403 6.35659 12.6394 6.27032C12.6385 6.18406 12.6031 6.10174 12.5411 6.0418C9.79289 3.48542 5.53695 3.48542 2.78875 6.0418C2.72668 6.10174 2.69126 6.1841 2.69044 6.27039C2.68963 6.35668 2.72349 6.43969 2.78442 6.5008L3.93875 7.66747C4.05774 7.7866 4.25002 7.78911 4.37209 7.67313C5.27396 6.85646 6.44707 6.40397 7.66375 6.40347ZM9.97681 8.95752C9.97858 9.04403 9.94457 9.12743 9.88282 9.18804L7.88549 11.2037C7.82694 11.2629 7.74711 11.2963 7.66382 11.2963C7.58053 11.2963 7.5007 11.2629 7.44215 11.2037L5.44449 9.18804C5.38277 9.12739 5.34883 9.04396 5.35066 8.95745C5.35249 8.87094 5.38993 8.78903 5.45415 8.73104C6.72972 7.65215 8.59791 7.65215 9.87349 8.73104C9.93766 8.78907 9.97505 8.87102 9.97681 8.95752Z" fill="white"/>
</svg>
