<svg width="11" height="8" viewBox="0 0 11 8" fill="none" xmlns="http://www.w3.org/2000/svg">
<path d="M5.66375 2.40347C6.88124 2.40339 8.05529 2.85592 8.95775 3.67313C9.07982 3.78911 9.2721 3.7866 9.39109 3.66747L10.5458 2.5008C10.6066 2.4396 10.6403 2.35659 10.6394 2.27032C10.6385 2.18406 10.6031 2.10174 10.5411 2.0418C7.79289 -0.514584 3.53695 -0.514584 0.788755 2.0418C0.726677 2.10174 0.691259 2.1841 0.690444 2.27039C0.689629 2.35668 0.723486 2.43969 0.784421 2.5008L1.93875 3.66747C2.05774 3.7866 2.25002 3.78911 2.37209 3.67313C3.27396 2.85646 4.44707 2.40397 5.66375 2.40347Z" fill="#DADADA"/>
<path d="M7.88282 5.18804C7.94457 5.12743 7.97858 5.04403 7.97681 4.95752C7.97505 4.87102 7.93766 4.78907 7.87349 4.73104C6.59791 3.65215 4.72972 3.65215 3.45415 4.73104C3.38993 4.78903 3.35249 4.87094 3.35066 4.95745C3.34883 5.04396 3.38277 5.12739 3.44449 5.18804L5.44215 7.2037C5.5007 7.26294 5.58053 7.29628 5.66382 7.29628C5.74711 7.29628 5.82694 7.26294 5.88549 7.2037L7.88282 5.18804Z" fill="#DADADA"/>
</svg>
